<svg width="2620" height="1310" viewBox="0 -1310 2620 1310"
version="1.1"
xmlns="http://www.w3.org/2000/svg"
xmlns:xlink="http://www.w3.org/1999/xlink">
<defs>
  <style type="text/css"><![CDATA[
  
  tspan {font-family: DejaVu Sans Condensed, sans-serif; font-size:25px}
  .symbol {font-family: DejaVu Sans Condensed, sans-serif; font-size:90px; font-weight:bold; stroke: none}
  .su {font-size: 32px; font-family: DejaVu Sans Condensed, sans-serif; text-anchor:end; letter-spacing:-3px}
  .halflife {font-size: 32px; font-family: DejaVu Sans Condensed, sans-serif; text-anchor:middle; font-size: 30px}
  
  circle {stroke-width:3.5; stroke:black}
  .nonmetal {fill: url(#nonmetal)}
  .noblegas {fill: url(#noblegas)}
  .alkali {fill:url(#alkali)}
  .alkaline {fill:url(#alkaline)}
  .metalloid {fill:url(#metalloid)}
  .halogen {fill:url(#halogen)}
  .poormetal {fill:url(#poormetal)}
  .lanthanide {fill:url(#lanthanide)}
  .actinide {fill: url(#actinide)}
  .transition {fill: url(#transition)}
  line {marker-end:url(#Arrow2Mend); stroke-width:3.5; stroke:black}
  .ab {font-family: Liberation Sans, sans-serif; font-style:italic; font-size:40px}
  .background0 {stroke: none; fill: #ffffff}
  .background1 {stroke: none; fill: #f5f5f5}
  .SideKey {fill: #555555; font-family: DejaVu Sans Light, sans-serif; font-size: 40px; text-anchor: end}
  .key {font-family: DejaVu Sans Light, sans-serif; font-size: 25px}
  ]]></style>
  <marker
      refX="0"
      refY="0"
      orient="auto"
      id="Arrow2Mend"
      style="overflow:visible"> 
    <path
	d="M 8.7185878,4.0337352 -2.2072895,0.01601326 8.7185884,-4.0017078 c -1.7454984,2.3720609 -1.7354408,5.6174519 -6e-7,8.035443 z"
	transform="scale(-1,-1)"
	id="path4011"
	style="font-size:12px;fill-rule:evenodd;stroke-width:0.625;stroke-linejoin:round" /> 
  </marker> 
  <radialGradient id="ball" fx="75%" fy="25%">
    <stop offset="0%" stop-color="white" />
    <stop offset="100%" stop-color="grey" />
  </radialGradient>
  <radialGradient id="actinide" xlink:href="#ball">
    <stop offset="0%" stop-color="white" />
    <stop offset="100%" stop-color="#add5ff" />
  </radialGradient>
  <radialGradient id="nonmetal" xlink:href="#ball">
    <stop offset="0%" stop-color="white" />
    <stop offset="100%" stop-color="#a0ffa0" />
  </radialGradient>
  <radialGradient id="noblegas" xlink:href="#ball">
    <stop offset="0%" stop-color="white" />
    <stop offset="100%" stop-color="#c0ffff" />
  </radialGradient>
  <radialGradient id="alkali" xlink:href="#ball">
    <stop offset="0%" stop-color="white" />
    <stop offset="100%" stop-color="#ff6666" />
  </radialGradient>
  <radialGradient id="alkaline" xlink:href="#ball">
    <stop offset="0%" stop-color="white" />
    <stop offset="100%" stop-color="#ffdead" />
  </radialGradient>
  <radialGradient id="metalloid" xlink:href="#ball">
    <stop offset="0%" stop-color="white" />
    <stop offset="100%" stop-color="#cccc99" />
  </radialGradient>
  <radialGradient id="halogen" xlink:href="#ball">
    <stop offset="0%" stop-color="white" />
    <stop offset="100%" stop-color="#ffff99" />
  </radialGradient>
  <radialGradient id="poormetal" xlink:href="#ball">
    <stop offset="0%" stop-color="white" />
    <stop offset="100%" stop-color="#cccccc" />
  </radialGradient>
  <radialGradient id="lanthanide" xlink:href="#ball">
    <stop offset="0%" stop-color="white" />
    <stop offset="100%" stop-color="#ffbfff" />
  </radialGradient>
  <radialGradient id="transition" xlink:href="#ball">
    <stop offset="0%" stop-color="white" />
    <stop offset="100%" stop-color="#ffc0c0" />
  </radialGradient>
</defs>
<g transform="rotate(270)">
<rect x="10" y="10" width="1290" height="200" class="background0" />
<rect x="10" y="210" width="1290" height="200" class="background1" />
<rect x="10" y="410" width="1290" height="200" class="background0" />
<rect x="10" y="610" width="1290" height="200" class="background1" />
<rect x="10" y="810" width="1290" height="200" class="background0" />
<rect x="10" y="1010" width="1290" height="200" class="background1" />
<rect x="10" y="1210" width="1290" height="200" class="background0" />
<rect x="10" y="1410" width="1290" height="200" class="background1" />
<rect x="10" y="1610" width="1290" height="200" class="background0" />
<rect x="10" y="1810" width="1290" height="200" class="background1" />
<rect x="10" y="2010" width="1290" height="200" class="background0" />
<rect x="10" y="2210" width="1290" height="200" class="background1" />
<rect x="10" y="2410" width="1290" height="200" class="background0" />
<text x="1290" y="200" class="SideKey" >Neptunium</text><text x="1290" y="400" class="SideKey" >Uranium</text><text x="1290" y="600" class="SideKey" >Protactinium</text><text x="1290" y="800" class="SideKey" >Thorium</text><text x="1290" y="1000" class="SideKey" >Actinium</text><text x="1290" y="1200" class="SideKey" >Radium</text><text x="1290" y="1400" class="SideKey" >Francium</text><text x="1290" y="1600" class="SideKey" >Radon</text><text x="1290" y="1800" class="SideKey" >Astatine</text><text x="1290" y="2000" class="SideKey" >Polonium</text><text x="1290" y="2200" class="SideKey" >Bismuth</text><text x="1290" y="2400" class="SideKey" >Lead</text><text x="1290" y="2600" class="SideKey" >Thallium</text>
<g transform="translate(351,2270) rotate(90)">
<rect x="10" y="10" width="340" height="340" style="fill: white; stroke: black; stroke-width: 2px" />
<rect x="20" y="20" width="40" height="40" class="actinide" />
<text x="65" y="50" class="key">Actinides</text>
<rect x="20" y="60" width="40" height="40" class="alkali" />
<text x="65" y="90" class="key">Alkali Metals</text>
<rect x="20" y="100" width="40" height="40" class="alkaline" />
<text x="65" y="130" class="key">Alkaline Earth Metals</text>
<rect x="20" y="140" width="40" height="40" class="halogen" />
<text x="65" y="170" class="key">Halogens</text>
<rect x="20" y="180" width="40" height="40" class="metalloid" />
<text x="65" y="210" class="key">Metalloids</text>
<rect x="20" y="220" width="40" height="40" class="noblegas" />
<text x="65" y="250" class="key">Noble Gases</text>
<rect x="20" y="260" width="40" height="40" class="poormetal" />
<text x="65" y="290" class="key">Poor Metals</text>
<rect x="20" y="300" width="40" height="40" class="transition" />
<text x="65" y="330" class="key">Transition Metals</text>
</g>
<circle style="stroke: black; stroke-width: 3.5" cx="110" cy="110" r="100" class="actinide" />
<line x1="110" y1="210" x2="110" y2="405" />
<circle style="stroke: black; stroke-width: 3.5" cx="110" cy="510" r="100" class="actinide" />
<line x1="181" y1="439" x2="236" y2="384" />
<circle style="stroke: black; stroke-width: 3.5" cx="310" cy="310" r="100" class="actinide" />
<line x1="310" y1="410" x2="310" y2="605" />
<circle style="stroke: black; stroke-width: 3.5" cx="310" cy="710" r="100" class="actinide" />
<line x1="310" y1="810" x2="310" y2="1005" />
<circle style="stroke: black; stroke-width: 3.5" cx="310" cy="1110" r="100" class="alkaline" />
<line x1="381" y1="1039" x2="436" y2="984" />
<circle style="stroke: black; stroke-width: 3.5" cx="510" cy="910" r="100" class="actinide" />
<line x1="510" y1="1010" x2="510" y2="1205" />
<circle style="stroke: black; stroke-width: 3.5" cx="510" cy="1310" r="100" class="alkali" />
<line x1="510" y1="1410" x2="510" y2="1605" />
<circle style="stroke: black; stroke-width: 3.5" cx="510" cy="1710" r="100" class="halogen" />
<line x1="510" y1="1810" x2="510" y2="2005" />
<circle style="stroke: black; stroke-width: 3.5" cx="510" cy="2110" r="100" class="poormetal" />
<line x1="510" y1="2210" x2="510" y2="2405" />
<circle style="stroke: black; stroke-width: 3.5" cx="510" cy="2510" r="100" class="poormetal" />
<line x1="581" y1="2439" x2="636" y2="2384" />
<circle style="stroke: black; stroke-width: 3.5" cx="710" cy="2310" r="100" class="poormetal" />
<line x1="781" y1="2239" x2="836" y2="2184" />
<circle style="stroke: black; stroke-width: 3.5" cx="910" cy="2110" r="100" class="poormetal" />
<line x1="910" y1="2210" x2="910" y2="2405" />
<circle style="stroke: black; stroke-width: 3.5" cx="910" cy="2510" r="100" class="poormetal" />
<line x1="581" y1="2039" x2="636" y2="1984" />
<circle style="stroke: black; stroke-width: 3.5" cx="710" cy="1910" r="100" class="metalloid" />
<line x1="710" y1="2010" x2="710" y2="2205" />
</g>
<g transform="translate(-30,-30)">
<text>
	<tspan x="115" y="-80" class="su"
		>93</tspan><tspan x="115" dy="-42" class="su"
		>237</tspan><tspan x="115" dy="42" class="symbol"
		>Np</tspan><tspan x="145" dy="1.4em" class="halflife"
		>2.14e+06</tspan><tspan x="145" dy="1em" class="halflife"
		>Years</tspan>
</text>
<text x="310" y="-115" class="ab">&#945;</text>
<text>
	<tspan x="515" y="-80" class="su"
		>91</tspan><tspan x="515" dy="-42" class="su"
		>233</tspan><tspan x="515" dy="42" class="symbol"
		>Pa</tspan><tspan x="545" dy="1.4em" class="halflife"
		>27</tspan><tspan x="545" dy="1em" class="halflife"
		>Days</tspan>
</text>
<text x="450" y="-200" class="ab">&#946;&#8315;</text>
<text>
	<tspan x="315" y="-280" class="su"
		>92</tspan><tspan x="315" dy="-42" class="su"
		>233</tspan><tspan x="315" dy="42" class="symbol"
		>U</tspan><tspan x="345" dy="1.4em" class="halflife"
		>159200</tspan><tspan x="345" dy="1em" class="halflife"
		>Years</tspan>
</text>
<text x="510" y="-315" class="ab">&#945;</text>
<text>
	<tspan x="715" y="-280" class="su"
		>90</tspan><tspan x="715" dy="-42" class="su"
		>229</tspan><tspan x="715" dy="42" class="symbol"
		>Th</tspan><tspan x="745" dy="1.4em" class="halflife"
		>7340</tspan><tspan x="745" dy="1em" class="halflife"
		>Years</tspan>
</text>
<text x="910" y="-315" class="ab">&#945;</text>
<text>
	<tspan x="1115" y="-280" class="su"
		>88</tspan><tspan x="1115" dy="-42" class="su"
		>225</tspan><tspan x="1115" dy="42" class="symbol"
		>Ra</tspan><tspan x="1145" dy="1.4em" class="halflife"
		>15</tspan><tspan x="1145" dy="1em" class="halflife"
		>Days</tspan>
</text>
<text x="1050" y="-400" class="ab">&#946;&#8315;</text>
<text>
	<tspan x="915" y="-480" class="su"
		>89</tspan><tspan x="915" dy="-42" class="su"
		>225</tspan><tspan x="915" dy="42" class="symbol"
		>Ac</tspan><tspan x="945" dy="1.4em" class="halflife"
		>10</tspan><tspan x="945" dy="1em" class="halflife"
		>Days</tspan>
</text>
<text x="1110" y="-515" class="ab">&#945;</text>
<text>
	<tspan x="1315" y="-480" class="su"
		>87</tspan><tspan x="1315" dy="-42" class="su"
		>221</tspan><tspan x="1315" dy="42" class="symbol"
		>Fr</tspan><tspan x="1345" dy="1.4em" class="halflife"
		>5</tspan><tspan x="1345" dy="1em" class="halflife"
		>Minutes</tspan>
</text>
<text x="1510" y="-515" class="ab">&#945;</text>
<text>
	<tspan x="1715" y="-480" class="su"
		>85</tspan><tspan x="1715" dy="-42" class="su"
		>217</tspan><tspan x="1715" dy="42" class="symbol"
		>At</tspan><tspan x="1745" dy="1.4em" class="halflife"
		>32.3</tspan><tspan x="1745" dy="1em" class="halflife"
		>Seconds</tspan>
</text>
<text x="1910" y="-515" class="ab">&#945;</text>
<text>
	<tspan x="2115" y="-480" class="su"
		>83</tspan><tspan x="2115" dy="-42" class="su"
		>213</tspan><tspan x="2115" dy="42" class="symbol"
		>Bi</tspan><tspan x="2145" dy="1.4em" class="halflife"
		>46</tspan><tspan x="2145" dy="1em" class="halflife"
		>Minutes</tspan>
</text>
<text x="2310" y="-515" class="ab">&#945;</text>
<text>
	<tspan x="2515" y="-480" class="su"
		>81</tspan><tspan x="2515" dy="-42" class="su"
		>209</tspan><tspan x="2515" dy="42" class="symbol"
		>Tl</tspan><tspan x="2545" dy="1.4em" class="halflife"
		>2.2</tspan><tspan x="2545" dy="1em" class="halflife"
		>Minutes</tspan>
</text>
<text x="2450" y="-600" class="ab">&#946;&#8315;</text>
<text>
	<tspan x="2315" y="-680" class="su"
		>82</tspan><tspan x="2315" dy="-42" class="su"
		>209</tspan><tspan x="2315" dy="42" class="symbol"
		>Pb</tspan><tspan x="2345" dy="1.4em" class="halflife"
		>3.25</tspan><tspan x="2345" dy="1em" class="halflife"
		>Minutes</tspan>
</text>
<text x="2250" y="-800" class="ab">&#946;&#8315;</text>
<text>
	<tspan x="2115" y="-880" class="su"
		>83</tspan><tspan x="2115" dy="-42" class="su"
		>209</tspan><tspan x="2115" dy="42" class="symbol"
		>Bi</tspan><tspan x="2145" dy="1.4em" class="halflife"
		>1.9e+19</tspan><tspan x="2145" dy="1em" class="halflife"
		>Years</tspan>
</text>
<text x="2310" y="-915" class="ab">&#945;</text>
<text>
	<tspan x="2515" y="-880" class="su"
		>81</tspan><tspan x="2515" dy="-42" class="su"
		>205</tspan><tspan x="2515" dy="42" class="symbol"
		>Tl</tspan><tspan x="2545" dy="1.4em" class="halflife"
		>Stable</tspan>
</text>
<text x="2050" y="-600" class="ab">&#946;&#8315;</text>
<text>
	<tspan x="1915" y="-680" class="su"
		>84</tspan><tspan x="1915" dy="-42" class="su"
		>213</tspan><tspan x="1915" dy="42" class="symbol"
		>Po</tspan><tspan x="1945" dy="1.4em" class="halflife"
		>4.2e-06</tspan><tspan x="1945" dy="1em" class="halflife"
		>Seconds</tspan>
</text>
<text x="2110" y="-715" class="ab">&#945;</text>
</g>
</svg>
